<?xml version="1.0" encoding="UTF-8"?>
<svg id="Layer_1" xmlns="http://www.w3.org/2000/svg" version="1.1" viewBox="0 0 1218.7 735.5">
  <!-- Generator: Adobe Illustrator 29.2.1, SVG Export Plug-In . SVG Version: 2.1.0 Build 116)  -->
  <defs>
    <style>
      .st0 {
        fill: none;
        stroke: #000;
        stroke-miterlimit: 10;
      }
    </style>
  </defs>
  <path class="st0" d="M.4.2c67.2,116.6,113,137.8,143,134,34-4.3,45.4-40.4,93-48,41.8-6.7,96.2,11.1,106,41,20.1,61.1-130,220.5-242,179C43.3,285.1-.5,212.8,17.4,184.2c26.3-41.9,155.4,58.1,359,46,169.6-10.1,186.6-85.8,372-91,77.4-2.2,176.4-3.6,274,59,121.4,77.9,158.8,202.4,170,242,19.1,67.4,53.1,187.1-14,254-66.9,66.7-195.9,42.3-273-8-57.6-37.6-152.4-132.8-116-230,28.4-76,124-118.3,203-101,116.6,25.5,182.2,177.2,143,231-37.1,50.8-164.4,58.7-201,3-23.2-35.3-12.5-101,18-115,13.9-6.4,30-1,45,4,15.7,5.3,49.7,16.6,56,44,7.2,31.2-23.6,73.1-53,70-23-2.4-45.3-32.5-39-56,3.8-13.9,18.5-29,32-26,11.1,2.5,21.6,17.3,17,26-2.8,5.4-11,7.8-20,7"/>
</svg>